<?xml version="1.0" encoding="utf-8"?>
<!-- Generator: Adobe Illustrator 28.0.0, SVG Export Plug-In . SVG Version: 6.00 Build 0)  -->
<svg version="1.1" id="Capa_1" xmlns="http://www.w3.org/2000/svg" xmlns:xlink="http://www.w3.org/1999/xlink" x="0px" y="0px"
	 viewBox="0 0 1080 1080" style="enable-background:new 0 0 1080 1080;" xml:space="preserve">
<style type="text/css">
	
		.st0{clip-path:url(#SVGID_00000093894569057156347040000004875943238506821272_);fill:url(#SVGID_00000156576204375577541680000002007891571761801638_);}
	.st1{fill-rule:evenodd;clip-rule:evenodd;fill:#A044FF;}
	
		.st2{clip-path:url(#SVGID_00000071528211079740458730000013960757831976055177_);fill:url(#SVGID_00000129920527424470852270000014885838578671116198_);}
	.st3{fill-rule:evenodd;clip-rule:evenodd;fill:#00BC6D;}
	.st4{fill-rule:evenodd;clip-rule:evenodd;fill:#FFFFFF;}
	.st5{fill:#FFFFFF;}
</style>
<g>
	<g>
		<g>
			<defs>
				<path id="SVGID_1_" d="M188,496.2c-4.4,0.5-9,0.9-13.8,1.1v85.5c92.7,2.7,73.1,45.8,73.1,190.3c0,105.3,62.7,156.5,170.2,152.3
					v-85.5c-92.6-2.7-73-45.8-73-190.3C344.4,555.6,286.9,492.7,188,496.2"/>
			</defs>
			<clipPath id="SVGID_00000000906170428919164150000006545357921705888910_">
				<use xlink:href="#SVGID_1_"  style="overflow:visible;"/>
			</clipPath>
			
				<linearGradient id="SVGID_00000090278748506657642850000018008798354147173779_" gradientUnits="userSpaceOnUse" x1="295.8252" y1="398.4391" x2="295.8252" y2="544.6176" gradientTransform="matrix(1 0 0 -1 0 1080)">
				<stop  offset="0" style="stop-color:#A044FF"/>
				<stop  offset="1" style="stop-color:#6800FF"/>
			</linearGradient>
			
				<rect x="174.2" y="492.7" style="clip-path:url(#SVGID_00000000906170428919164150000006545357921705888910_);fill:url(#SVGID_00000090278748506657642850000018008798354147173779_);" width="243.2" height="436.8"/>
		</g>
	</g>
	<path class="st1" d="M188,583.8c-4.4-0.5-9-0.9-13.8-1.1v-85.5c92.7-2.7,73.1-45.8,73.1-190.3c0-105.3,62.7-156.5,170.2-152.3v85.5
		c-92.6,2.7-73,45.8-73,190.3C344.4,524.5,286.9,587.3,188,583.8"/>
	<g>
		<g>
			<defs>
				<path id="SVGID_00000137100484645778154370000018054775084165194939_" d="M892,583.8c4.4-0.5,9-0.9,13.8-1.1v-85.5
					c-92.6-2.7-73.1-45.8-73.1-190.3c0-105.3-62.7-156.5-170.2-152.3v85.5c92.6,2.7,73,45.8,73,190.3
					C735.6,524.5,793.1,587.3,892,583.8"/>
			</defs>
			<clipPath id="SVGID_00000176765470123581134490000005813085354666576514_">
				<use xlink:href="#SVGID_00000137100484645778154370000018054775084165194939_"  style="overflow:visible;"/>
			</clipPath>
			
				<linearGradient id="SVGID_00000105421147401557988180000014836095333959099838_" gradientUnits="userSpaceOnUse" x1="784.1747" y1="722.9471" x2="784.1747" y2="548.3777" gradientTransform="matrix(1 0 0 -1 0 1080)">
				<stop  offset="0" style="stop-color:#00BC6D"/>
				<stop  offset="1" style="stop-color:#008F48"/>
			</linearGradient>
			
				<rect x="662.6" y="150.5" style="clip-path:url(#SVGID_00000176765470123581134490000005813085354666576514_);fill:url(#SVGID_00000105421147401557988180000014836095333959099838_);" width="243.2" height="436.8"/>
		</g>
	</g>
	<path class="st3" d="M892,496.2c4.4,0.5,9,0.9,13.8,1.1v85.5c-92.6,2.7-73.1,45.8-73.1,190.3c0,105.3-62.7,156.5-170.2,152.3v-85.5
		c92.6-2.7,73-45.8,73-190.3C735.6,555.6,793.1,492.7,892,496.2"/>
	<path class="st4" d="M429,330.6h222v85.5H429V330.6z M429,497.2h222v85.5H429V497.2z M429,663.9h222v85.5H429V663.9z"/>
</g>
<g>
	<path class="st5" d="M-785.8,472.6v27.2h-55.8v13.3h50.7v27.2h-50.7v13.5h57.2V581h-93.1V472.6H-785.8z"/>
	<path class="st5" d="M-733.1,472.6l42.8,55.7v-55.7h32.5V581h-30l-42.7-55.3V581h-32.6V472.6H-733.1z"/>
	<path class="st5" d="M-580.8,501.3c-13,0-22.4,10.4-22.4,24.7c0,14.5,9.4,25,22.4,25c7.7,0,17.5-4.8,24.6-12.4l20.7,22.1
		c-12.1,13.1-30.5,21.6-47.2,21.6c-33.2,0-57.4-23.7-57.4-56c0-31.8,24.7-55,58.8-55c16.5,0,34.6,7.7,45.8,19.8l-20.7,24.6
		C-562.7,507.1-572.5,501.3-580.8,501.3z"/>
	<path class="st5" d="M-408.4,526.7c0,32.2-25,55.8-59.5,55.8c-34.5,0-59.5-23.5-59.5-55.8c0-32.2,25-55.2,59.5-55.2
		S-408.4,494.7-408.4,526.7z M-490.7,526.8c0,14.8,10.8,25.8,23.2,25.8s22.3-11,22.3-25.8s-9.9-25.5-22.3-25.5
		C-480,501.3-490.7,512-490.7,526.8z"/>
	<path class="st5" d="M-283.4,526.7c0,32.9-23.7,54.3-60.3,54.3h-47V472.6h48.4C-306.5,472.6-283.4,493.8-283.4,526.7z M-320,527
		c0-16.1-9.1-26.6-23-26.6h-11.8v52.7h13.5C-328.3,553.1-320,542.9-320,527z"/>
	<path class="st5" d="M-173.9,472.6v27.2h-55.8v13.3h50.7v27.2h-50.7v13.5h57.2V581h-93.1V472.6H-173.9z"/>
</g>
</svg>
