<?xml version="1.0" encoding="utf-8"?>
<!-- Generator: Adobe Illustrator 28.0.0, SVG Export Plug-In . SVG Version: 6.00 Build 0)  -->
<svg version="1.1" id="Capa_1" xmlns="http://www.w3.org/2000/svg" xmlns:xlink="http://www.w3.org/1999/xlink" x="0px" y="0px"
	 viewBox="0 0 1800 500" style="enable-background:new 0 0 1800 500;" xml:space="preserve">
<style type="text/css">
	
		.st0{clip-path:url(#SVGID_00000160176713955119972380000010399084300799104697_);fill:url(#SVGID_00000100365849405380053910000002889013841526774956_);}
	.st1{fill-rule:evenodd;clip-rule:evenodd;fill:#A044FF;}
	
		.st2{clip-path:url(#SVGID_00000166660606816960108490000010749069690644393364_);fill:url(#SVGID_00000127761938375698409560000012545824454768861885_);}
	.st3{fill-rule:evenodd;clip-rule:evenodd;fill:#00BC6D;}
	.st4{fill-rule:evenodd;clip-rule:evenodd;fill:#FFFFFF;}
	.st5{fill:#FFFFFF;}
</style>
<g>
	<g>
		<g>
			<g>
				<defs>
					<path id="SVGID_1_" d="M115,227.1c-2.3,0.3-4.7,0.5-7.2,0.5v44.8c48.5,1.4,38.3,24,38.3,99.7c0,55.2,32.8,82,89.1,79.8V407
						c-48.5-1.4-38.2-24-38.2-99.7C196.9,258.1,166.8,225.2,115,227.1"/>
				</defs>
				<clipPath id="SVGID_00000112606203782746920950000011592709290510769566_">
					<use xlink:href="#SVGID_1_"  style="overflow:visible;"/>
				</clipPath>
				
					<linearGradient id="SVGID_00000093156077365332249140000000893825153778272146_" gradientUnits="userSpaceOnUse" x1="171.4661" y1="194.2281" x2="171.4661" y2="270.7822" gradientTransform="matrix(1 0 0 -1 0 518.3639)">
					<stop  offset="0" style="stop-color:#A044FF"/>
					<stop  offset="1" style="stop-color:#6800FF"/>
				</linearGradient>
				
					<rect x="107.8" y="225.2" style="clip-path:url(#SVGID_00000112606203782746920950000011592709290510769566_);fill:url(#SVGID_00000093156077365332249140000000893825153778272146_);" width="127.4" height="228.8"/>
			</g>
		</g>
		<path class="st1" d="M115,273c-2.3-0.3-4.7-0.5-7.2-0.6v-44.8c48.5-1.4,38.3-24,38.3-99.6c0-55.2,32.8-81.9,89.1-79.8V93
			c-48.5,1.4-38.2,24-38.2,99.6C196.9,241.9,166.8,274.8,115,273"/>
		<g>
			<g>
				<defs>
					<path id="SVGID_00000127722919781964436550000017766364478873083312_" d="M483.7,273c2.3-0.3,4.7-0.5,7.2-0.6v-44.8
						c-48.5-1.4-38.3-24-38.3-99.6c0-55.2-32.8-81.9-89.1-79.8V93c48.5,1.4,38.2,24,38.2,99.6C401.8,241.9,431.9,274.8,483.7,273"/>
				</defs>
				<clipPath id="SVGID_00000049222877077359914250000013186416258674103211_">
					<use xlink:href="#SVGID_00000127722919781964436550000017766364478873083312_"  style="overflow:visible;"/>
				</clipPath>
				
					<linearGradient id="SVGID_00000091701413629874384650000003256207182058539936_" gradientUnits="userSpaceOnUse" x1="427.2161" y1="364.1739" x2="427.2161" y2="272.7514" gradientTransform="matrix(1 0 0 -1 0 518.3639)">
					<stop  offset="0" style="stop-color:#00BC6D"/>
					<stop  offset="1" style="stop-color:#008F48"/>
				</linearGradient>
				
					<rect x="363.5" y="46" style="clip-path:url(#SVGID_00000049222877077359914250000013186416258674103211_);fill:url(#SVGID_00000091701413629874384650000003256207182058539936_);" width="127.4" height="228.8"/>
			</g>
		</g>
		<path class="st3" d="M483.7,227.1c2.3,0.3,4.7,0.5,7.2,0.5v44.8c-48.5,1.4-38.3,24-38.3,99.7c0,55.2-32.8,82-89.1,79.8V407
			c48.5-1.4,38.2-24,38.2-99.7C401.8,258.1,431.9,225.2,483.7,227.1"/>
		<path class="st4" d="M241.2,140.3h116.2v44.8H241.2V140.3z M241.2,227.6h116.2v44.8H241.2V227.6z M241.2,314.9h116.2v44.8H241.2
			V314.9z"/>
	</g>
	<g>
		<path class="st5" d="M746.6,166.1v42h-86v20.5h78.2v42h-78.2v20.7h88.2v42H605.3V166.1H746.6z"/>
		<path class="st5" d="M827.9,166.1l66,85.8v-85.8H944v167.1h-46.2L832,247.9v85.3h-50.3V166.1H827.9z"/>
		<path class="st5" d="M1062.7,210.4c-20,0-34.6,16-34.6,38.1c0,22.4,14.5,38.6,34.6,38.6c11.9,0,26.9-7.4,37.9-19.1l31.9,34.1
			c-18.6,20.3-47,33.4-72.7,33.4c-51.3,0-88.4-36.5-88.4-86.3c0-49.1,38.1-84.9,90.6-84.9c25.5,0,53.4,11.9,70.6,30.5l-31.9,37.9
			C1090.6,219.3,1075.6,210.4,1062.7,210.4z"/>
		<path class="st5" d="M1328.5,249.5c0,49.6-38.6,86-91.8,86c-53.2,0-91.8-36.2-91.8-86c0-49.6,38.6-85.1,91.8-85.1
			C1289.9,164.4,1328.5,200.2,1328.5,249.5z M1201.7,249.8c0,22.9,16.7,39.8,35.8,39.8s34.3-16.9,34.3-39.8s-15.2-39.3-34.3-39.3
			C1218.1,210.4,1201.7,226.9,1201.7,249.8z"/>
		<path class="st5" d="M1521.3,249.5c0,50.8-36.5,83.7-93,83.7h-72.5V166.1h74.6C1485.6,166.1,1521.3,198.8,1521.3,249.5z
			 M1464.8,250c0-24.8-14.1-41-35.5-41h-18.1v81.3h20.7C1452,290.3,1464.8,274.6,1464.8,250z"/>
		<path class="st5" d="M1690.1,166.1v42h-86v20.5h78.2v42H1604v20.7h88.2v42h-143.5V166.1H1690.1z"/>
	</g>
</g>
</svg>
